<svg xmlns="http://www.w3.org/2000/svg" viewBox="0 0 512 512" width="512" height="512">
  <defs>
    <radialGradient id="bg" cx="50%" cy="50%" r="50%">
      <stop offset="0%" stop-color="#0d1a3a"/>
      <stop offset="100%" stop-color="#050510"/>
    </radialGradient>
    <radialGradient id="orb" cx="40%" cy="35%" r="60%">
      <stop offset="0%" stop-color="#4fc3f7" stop-opacity="0.6"/>
      <stop offset="50%" stop-color="#0a1a40" stop-opacity="0.9"/>
      <stop offset="100%" stop-color="#050510"/>
    </radialGradient>
    <filter id="glow">
      <feGaussianBlur stdDeviation="6" result="blur"/>
      <feMerge><feMergeNode in="blur"/><feMergeNode in="SourceGraphic"/></feMerge>
    </filter>
  </defs>
  <rect width="512" height="512" rx="100" fill="url(#bg)"/>
  <ellipse cx="256" cy="256" rx="190" ry="74" fill="none" stroke="#4fc3f7" stroke-width="2.5" stroke-opacity="0.25" transform="rotate(-25 256 256)"/>
  <ellipse cx="256" cy="256" rx="155" ry="155" fill="none" stroke="#ff9800" stroke-width="1.5" stroke-opacity="0.15"/>
  <ellipse cx="256" cy="256" rx="210" ry="80" fill="none" stroke="#b39ddb" stroke-width="1" stroke-opacity="0.1" transform="rotate(20 256 256)"/>
  <circle cx="256" cy="256" r="90" fill="url(#orb)" stroke="#4fc3f7" stroke-width="2.5" stroke-opacity="0.7" filter="url(#glow)"/>
  <text x="256" y="274" font-family="Arial Black, Arial, sans-serif" font-weight="900" font-size="64" fill="#4fc3f7" text-anchor="middle" opacity="0.95" letter-spacing="4">O</text>
  <circle cx="432" cy="232" r="10" fill="#4fc3f7" opacity="0.85" filter="url(#glow)"/>
  <circle cx="118" cy="348" r="7" fill="#ff9800" opacity="0.75" filter="url(#glow)"/>
  <circle cx="80" cy="105" r="3" fill="white" opacity="0.5"/>
  <circle cx="415" cy="145" r="2.5" fill="white" opacity="0.4"/>
  <circle cx="455" cy="380" r="3" fill="white" opacity="0.6"/>
  <circle cx="60" cy="430" r="2" fill="white" opacity="0.3"/>
  <circle cx="380" cy="445" r="3" fill="white" opacity="0.5"/>
  <circle cx="195" cy="80" r="2" fill="white" opacity="0.4"/>
  <circle cx="460" cy="260" r="2" fill="white" opacity="0.3"/>
</svg>
